<?xml version="1.0" standalone="no"?>
<!DOCTYPE svg PUBLIC "-//W3C//DTD SVG 20010904//EN"
 "http://www.w3.org/TR/2001/REC-SVG-20010904/DTD/svg10.dtd">
<svg version="1.0" xmlns="http://www.w3.org/2000/svg"
 width="512.000000pt" height="512.000000pt" viewBox="0 0 512.000000 512.000000"
 preserveAspectRatio="xMidYMid meet">

<g transform="translate(0.000000,512.000000) scale(0.100000,-0.100000)"
fill="#000000" stroke="none">
<path d="M2397 4944 c-109 -20 -225 -67 -321 -131 l-81 -54 -50 16 c-115 38
-239 28 -349 -27 -62 -31 -146 -109 -171 -159 -15 -27 -19 -29 -78 -29 -215
-2 -437 -94 -597 -250 -121 -117 -201 -256 -246 -426 -25 -97 -26 -301 0 -408
18 -77 18 -79 0 -89 -47 -27 -117 -105 -147 -166 l-32 -66 0 -190 c0 -178 2
-194 24 -250 17 -42 42 -78 85 -121 80 -79 144 -105 278 -112 l96 -4 26 -82
c14 -44 42 -109 63 -144 42 -71 132 -168 193 -208 l40 -27 -39 -33 c-81 -70
-131 -184 -131 -301 0 -55 -4 -69 -29 -101 -68 -88 -68 -196 0 -284 l29 -37 0
-258 c0 -200 3 -272 15 -318 49 -187 205 -328 395 -358 l70 -11 0 -53 c0 -44
5 -58 25 -78 l24 -25 1071 0 1071 0 24 25 c20 20 25 34 25 78 l0 53 70 11
c197 31 364 190 400 382 6 29 10 166 10 303 l0 249 29 37 c68 88 68 196 0 284
-25 32 -29 45 -29 103 0 114 -54 236 -135 303 l-36 29 41 27 c61 40 151 137
193 208 21 35 49 100 63 146 l26 82 77 0 c138 0 233 39 314 130 25 28 56 77
69 108 21 53 23 72 23 247 l0 190 -32 66 c-30 61 -99 139 -147 166 -18 10 -18
12 0 89 26 107 25 311 0 408 -103 388 -415 648 -809 673 -94 6 -99 7 -112 34
-26 48 -110 126 -171 157 -110 55 -234 65 -349 27 l-50 -16 -81 54 c-186 125
-420 172 -647 131z m1152 -1115 c249 -40 463 -209 557 -439 l24 -60 -76 -96
-77 -95 -41 78 c-118 227 -377 346 -624 288 -124 -29 -245 -108 -319 -208 -25
-34 -48 -62 -52 -62 -3 0 -49 22 -101 48 -97 49 -199 77 -280 77 -81 0 -183
-28 -280 -77 -52 -26 -98 -48 -101 -48 -4 0 -27 28 -52 62 -101 136 -274 223
-447 223 -201 0 -401 -120 -490 -292 -19 -38 -38 -68 -41 -68 -3 0 -38 41 -79
92 l-73 91 17 46 c29 79 78 153 156 232 111 112 244 183 392 208 78 13 1908
13 1987 0z m-1705 -507 c91 -42 149 -100 194 -190 35 -72 37 -81 37 -172 0
-91 -2 -100 -37 -172 -45 -91 -103 -147 -196 -191 -61 -29 -76 -32 -162 -32
-86 0 -101 3 -162 32 -93 44 -151 100 -196 191 -35 72 -37 81 -37 171 0 87 3
102 32 163 40 85 97 147 172 186 78 42 122 52 213 48 61 -3 92 -11 142 -34z
m1760 0 c91 -42 149 -100 194 -190 35 -72 37 -81 37 -172 0 -91 -2 -100 -37
-172 -45 -91 -103 -147 -196 -191 -61 -29 -76 -32 -162 -32 -86 0 -101 3 -162
32 -93 44 -151 100 -196 191 -35 72 -37 81 -37 171 0 87 3 102 32 163 40 85
97 147 172 186 78 42 122 52 213 48 61 -3 92 -11 142 -34z m-2804 -362 l0
-320 -62 0 c-94 0 -136 16 -189 69 -59 59 -69 94 -69 251 0 135 7 175 41 225
45 66 106 93 212 94 l67 1 0 -320z m3685 309 c25 -7 58 -29 86 -58 59 -59 69
-94 69 -251 0 -157 -10 -192 -69 -251 -53 -53 -95 -69 -188 -69 l-63 0 0 320
0 320 63 0 c34 0 80 -5 102 -11z m-1785 -98 c25 -10 77 -36 116 -59 l70 -41
-4 -83 c-18 -370 326 -658 687 -573 206 49 383 234 420 437 9 50 21 71 88 155
l78 97 3 -265 c2 -160 -2 -290 -8 -329 -35 -205 -210 -382 -414 -419 -40 -8
-423 -11 -1176 -11 -753 0 -1136 3 -1176 11 -204 37 -379 214 -414 419 -6 40
-10 172 -8 339 l3 275 76 -95 c71 -88 76 -99 88 -168 31 -172 146 -325 303
-400 173 -83 329 -82 505 5 191 93 315 311 301 529 l-5 75 76 44 c42 25 90 50
106 56 83 32 201 32 285 1z m-849 -1508 c79 -280 91 -303 151 -303 29 0 59 27
295 262 l263 262 263 -262 c355 -354 333 -356 446 41 l74 258 246 -3 c229 -3
249 -4 286 -25 88 -47 117 -103 124 -244 6 -105 6 -106 44 -148 44 -49 46 -69
11 -110 l-26 -31 -174 0 -174 0 0 30 c0 17 16 62 35 100 19 38 35 72 35 75 0
2 -31 21 -70 40 l-70 35 -45 -90 -45 -90 0 -570 0 -570 -960 0 -960 0 0 570 0
570 -45 90 -45 90 -70 -35 c-39 -19 -70 -38 -70 -40 0 -3 16 -37 35 -75 19
-38 35 -83 35 -100 l0 -30 -174 0 -174 0 -26 31 c-35 41 -33 60 14 114 40 46
40 47 40 128 0 122 26 192 91 239 56 42 94 47 335 48 l231 0 74 -257z m354 97
c-88 -88 -162 -156 -166 -152 -7 7 -89 290 -89 305 0 4 93 7 207 7 l208 0
-160 -160z m965 153 c0 -15 -82 -298 -89 -305 -4 -4 -78 64 -166 152 l-160
160 208 0 c114 0 207 -3 207 -7z m-1730 -1074 l0 -362 -42 7 c-108 17 -201 87
-247 185 -25 55 -26 61 -29 294 l-3 237 160 0 161 0 0 -361z m2558 124 c-3
-233 -4 -239 -29 -294 -46 -98 -139 -168 -246 -185 l-43 -7 0 362 0 361 161 0
160 0 -3 -237z"/>
<path d="M1520 2960 l0 -80 160 0 160 0 0 80 0 80 -160 0 -160 0 0 -80z"/>
<path d="M3280 2960 l0 -80 160 0 160 0 0 80 0 80 -160 0 -160 0 0 -80z"/>
<path d="M2244 2593 c13 -100 85 -196 181 -244 41 -20 65 -24 135 -24 70 0 94
4 135 24 96 48 168 144 181 244 l7 47 -81 0 -80 0 -6 -36 c-9 -47 -73 -111
-120 -120 -20 -3 -52 -3 -72 0 -47 9 -111 73 -120 120 l-6 36 -80 0 -81 0 7
-47z"/>
<path d="M2880 1120 l0 -80 240 0 240 0 0 80 0 80 -240 0 -240 0 0 -80z"/>
</g>
</svg>
